<svg xmlns="http://www.w3.org/2000/svg" viewBox="0 0 597 127"><path d="M152 41.3c-5-6.2-13.6-9.4-24.4-9.4-22.4 0-39.4 14-43.2 35.5-1.7 10.1 0 18.5 5 24.6 5.6 6.4 15.1 10.1 26.9 10.1 8 0 15.7-1.8 22.3-5.5 6-3.5 10.8-8.1 13.9-13.8.3-.4.3-.7.1-1-.1-.1-.3-.3-.7-.3h-18.5c-.4 0-1 .1-1.3.6-3.4 3.9-7.6 5.7-12.9 5.7-5.2 0-9-1.4-11.4-3.9-2.2-2.4-3.2-5.7-3.1-10.1.1-2.2 2.2-4.2 4.5-4.2h46.1c.7 0 1.4-.6 1.5-1.3 2.2-11.3.5-20.7-4.8-27zm-14 15.2c-.8 1.3-2.2 2.1-3.6 2.1h-21.2c-1.4 0-2.5-.7-3.2-2-.6-1.3-.4-2.8.6-4.2 3.4-4.8 9.1-7.5 15.4-7.5 5.9 0 10.8 3.1 12.6 8 .3 1.3.2 2.5-.6 3.6zm146.4 18.2l-6.3 3.9-.4.4c-1.4 2-2.9 3.9-4.6 5.9-11.2 12.4-26.2 19-43.6 19-7.6 0-14.4-1.3-20.3-3.6-5.9-2.4-10.7-5.9-14.4-10.3-7.7-9.2-10.5-22.1-7.9-36.9 2.8-15.5 10.1-28.8 21.4-38.2C219.5 5.5 233.7.5 249.2.5c17.2 0 29.4 6.7 35.9 19.6l-21.9 13.6c-1.1-3.6-3.1-6.7-5.6-9-3.6-3.1-8.1-4.6-13.6-4.6-8.3 0-16 3.6-22.3 10.5-5.3 5.9-9.3 14-10.7 22.1-1.8 9.9.3 19.4 5.3 25.4 4.1 4.9 10 7.4 17 7.4 6 0 11.5-1.5 15.8-4.6 3.2-2.2 5.7-5.2 7.6-8.8h26.9c1.5 0 2.1 1.9.8 2.6zm60.7-38L342 53.2c0 .8-.7 1.4-1.4 1.4h-.3c-2-1-4.1-1.1-7-1.1-15.8 0-19.9 12.3-21.6 21.4l-4.2 24.5c-.3.8-.8 1.4-1.7 1.4H287s-.3 0-.6-.3v-.6l8.7-48.9c0-.3.3-.6.6-.8l21-13.1c.3-.3.7-.3 1-.3.1 0 .4 0 .4.3.3 0 .3.1.3.6l-2 10.3c-.1.7.5 1.3 1.3.8 4.5-3.6 17-12.9 24.5-12.9h2.2s.3 0 .3.3c.4-.1.4.2.4.5zm159.1 2.4l-7.1 4.5c-.8.6-1.7 1.3-2.4 2.1l-29.2 34.7c-1 1-.1 2.5 1.1 2.5h23.3c1 0 1.8 1 1.5 2l-2.5 14.7c-.1.7-.8 1.3-1.5 1.3h-60.1c-1.3 0-2.1-1.5-1.1-2.7L461 56.8c.8-1.1.1-2.7-1.3-2.7h-22.3c-1 0-1.8-.8-1.5-1.8l2.5-14.7c.1-.8.8-1.4 1.5-1.4h63.4c1.6.1 2.2 2.2.9 2.9zm92.1-7.6l-8.8 5.5-1 .8-62.2 87.5c-.4.4-.8.7-1.4.7h-20.6c-1.3 0-2-1.4-1.3-2.5l27.2-37.9c.3-.4.3-1 .1-1.5l-20.5-53.3c-.4-1 .4-2.1 1.5-2.1H531c.7 0 1.3.4 1.5 1l10.7 30.8c.4 1.3 2 1.5 2.8.4l21.6-31.5c.3-.4.8-.7 1.3-.7h26.5c1.6 0 2.2 2 .9 2.8zM430.8 36h-27.5c-.6 0-1 .4-1.1 1l-.4 2.7c-.1.8-1 1.7-1.8 1.7-.4 0-.8-.3-1.1-.6-3.6-4.3-10.1-6.9-17.4-6.9-9 0-17.9 3.6-25.1 10.2-7 6.3-11.6 15-13.3 24-1.5 9.2.1 17.8 4.9 24.2 4.9 6.7 12.6 10.3 21.6 10.3 7.6 0 14.9-2.8 19.6-7.4.3-.3.8-.6 1.3-.6.4 0 .7 0 1.1.4.1.1.4.7.3 1.3l-.6 2.7c-.1.7.4 1.4 1.1 1.4h19.5c.6 0 1.1-.4 1.3-1l9.7-54.8c0-.1.1-.4.3-.6l8.5-5.3c1.2-.6.6-2.7-.9-2.7zm-33.4 32.3c-.7 4.3-2.9 8.4-6.2 11-3.4 2.9-7.6 4.6-12.5 4.6-4.8 0-8.5-1.7-10.8-4.6-2.2-2.7-3.1-6.7-2.2-11 .7-4.2 2.9-8.2 6-11 3.5-3.1 7.9-4.6 12.6-4.6 4.8 0 8.5 1.5 10.8 4.6 2.3 2.7 3.2 6.8 2.3 11zM75.9 59.9c-2.5-3.5-6.6-5.6-12.3-6.3-.7-.1-1.3-.8-1.1-1.7v-.3c.1-.4.4-.8.8-1C70.9 47 75.4 40.7 77 31.2c1.4-7.7.4-13.6-2.9-17.5C70.3 9.2 63.4 7 53.4 7H18.6c-.7 0-1.3.4-1.4 1.1L.7 102.3c-.1.8.4 1.7 1.4 1.7h36.6c10 0 18.6-2.1 25.4-5.9 7.8-4.6 12.8-11.6 14.3-22.4 1.1-7.6.5-11.9-2.5-15.8zM55.3 75.1c-2 11.7-15.1 11.7-22.3 11.7h-4.9c-.8 0-1.5-.8-1.4-1.7l3.8-21.4c.1-.7.7-1.1 1.4-1.1h2.7c.7 0 1.4 0 2.1-.1h2.4c5.9 0 11.6.6 14.7 4.1 1.7 2.1 2.2 5 1.5 8.5zm.5-39.9c-.7 4.3-3.4 7.5-7 9.2-3.4 1.5-7.4 1.8-10.5 1.8h-2.9c-.8 0-1.5-.8-1.4-1.7l3.5-19.3c0-.7.7-1.3 1.4-1.3h1.8c4.9 0 10.4-.3 12.9 2.4 1.7 1.9 2.9 5.6 2.2 8.9z" fill="#E53244"/></svg>