<?xml version="1.0" encoding="UTF-8"?>
<svg width="320px" height="132px" viewBox="0 0 320 132" version="1.1" xmlns="http://www.w3.org/2000/svg" xmlns:xlink="http://www.w3.org/1999/xlink">
    <!-- Generator: Sketch 51.1 (57501) - http://www.bohemiancoding.com/sketch -->
    <title>Episerver Reversed</title>
    <desc>Created with Sketch.</desc>
    <defs></defs>
    <g id="Episerver-Reversed" stroke="none" stroke-width="1" fill="none" fill-rule="evenodd">
        <path d="M60.057009,50.0031045 L60.057009,28.0439139 C60.057009,20.3719696 66.2749414,14.0230858 74.0800948,14.0230858 C79.7697062,14.0230858 84.9287387,17.5948974 87.1774899,22.8848813 L60.057009,50.0031045 Z M161.388536,30.5590833 C161.388536,21.4308695 166.680778,14.8155674 175.278413,14.8155674 C183.745096,14.8155674 189.301499,21.166709 189.301499,30.292665 L189.301499,66.6723111 C189.301499,75.1389947 185.862896,83.0750995 174.616883,83.0750995 L171.045071,83.0750995 L171.045071,97.6265064 L174.616883,97.6265064 C185.068157,97.6265064 190.757768,93.9237434 199.619564,85.0596901 L259.809782,24.7385206 L259.809782,77.2545367 C259.809782,92.0701041 268.540626,98.2880366 278.463579,98.2880366 C285.209833,98.2880366 289.309965,95.908334 295.527898,89.6904016 L320,65.2160415 L309.946095,55.6927158 L285.209833,80.1648181 C281.902182,83.33926 280.445912,83.8698389 279.125109,83.8698389 C275.94841,83.8698389 273.966077,81.4878785 273.966077,78.0492761 L273.966077,8.73084413 C273.966077,4.2333418 271.715068,0.661530212 266.953405,0.661530212 C264.968814,0.661530212 263.250642,1.32306042 259.809782,4.76166286 L203.455536,61.2491181 L203.455536,28.0439139 C203.455536,12.5668162 190.757768,0 175.278413,0 C166.813987,0 160.860215,2.77707222 152.393531,11.2437558 L86.2495414,77.3877459 C81.3569272,82.2826179 78.5775972,83.8698389 73.8159343,83.8698389 C66.4081506,83.8698389 60.057009,77.6519064 60.057009,69.9799622 L99.8752575,30.0285045 C101.462478,28.4412835 102.257218,26.1925324 101.993057,23.9437812 C99.8752575,10.3180651 87.9699715,0 74.0800948,0 C66.4081506,0 60.057009,2.11554201 50.7978438,11.376965 L0,62.3057602 L10.0539046,72.2287133 L45.9029718,36.3796461 L45.9029718,67.9953715 C45.9029718,86.5159597 58.2056275,97.8906669 74.0800948,97.8906669 C83.2083086,97.8906669 88.6315017,94.9803855 96.7008156,86.9110716 L147.234499,36.3796461 L147.234499,131.360032 L161.388536,131.360032 L161.388536,30.5590833 Z" id="Fill-1" fill="#FFFFFF"></path>
    </g>
</svg>