<?xml version="1.0" encoding="UTF-8"?>
<svg width="320px" height="113px" viewBox="0 0 320 113" version="1.1" xmlns="http://www.w3.org/2000/svg" xmlns:xlink="http://www.w3.org/1999/xlink">
    <!-- Generator: Sketch 51.1 (57501) - http://www.bohemiancoding.com/sketch -->
    <title>Kentico Reversed</title>
    <desc>Created with Sketch.</desc>
    <defs></defs>
    <g id="Kentico-Reversed" stroke="none" stroke-width="1" fill="none" fill-rule="evenodd">
        <g id="Group" fill="#FFFFFF" fill-rule="nonzero">
            <path d="M56.3158203,44.2706805 C62.9261489,44.2706805 68.3345996,49.6791312 68.3345996,56.2894599 C68.3345996,62.9749059 62.9261489,68.3082392 56.3158203,68.3082392 C49.6303743,68.3082392 44.2970409,62.8997885 44.2970409,56.2894599 C44.2219236,49.6791312 49.6303743,44.2706805 56.3158203,44.2706805 Z M43.0200456,81.4537791 C34.8322522,89.6415726 22.8134729,101.660352 22.8134729,101.660352 C22.8134729,101.660352 8.2407029,92.7965021 16.8040832,84.2331218 C21.4613602,79.5758449 27.095163,73.942042 31.2266184,69.8105866 C38.437886,62.599319 50.3064306,74.0922768 43.0200456,81.4537791 Z M69.6115949,31.2753754 C77.7993883,23.0875819 89.8181677,11.0688026 89.8181677,11.0688026 C89.8181677,11.0688026 104.390938,19.9326524 95.8275574,28.4960326 C91.1702804,33.1533096 85.5364775,38.7871125 81.4050221,42.9185679 C74.1937545,50.1298355 62.2500926,38.5617603 69.6115949,31.2753754 Z M31.2266184,43.0688026 C23.038825,34.9561265 11.0200456,22.8622298 11.0200456,22.8622298 C11.0200456,22.8622298 19.8838954,8.21434251 28.4472757,16.8528402 C33.1045527,21.5101172 38.7383555,27.14392 42.8698109,31.2753754 C50.0810785,38.486643 38.5130034,50.3551876 31.2266184,43.0688026 Z M81.4050221,69.6603519 C89.5928156,77.8481453 101.611595,89.8669247 101.611595,89.8669247 C101.611595,89.8669247 92.7477452,104.439695 84.1843649,95.8763143 C79.5270879,91.2190373 73.8932851,85.5852345 69.7618297,81.4537791 C62.5505621,74.2425115 74.0435198,62.2988495 81.4050221,69.6603519 Z M83.3580738,48.1016664 L111.977792,48.1016664 C111.977792,48.1016664 116.03413,64.7026054 103.940233,64.7026054 L83.5083085,64.7026054 C73.2923461,64.627488 73.066994,48.1016664 83.3580738,48.1016664 Z M29.1984494,64.627488 L0.653848437,64.627488 C0.653848437,64.627488 -3.40248959,48.0265491 8.69140712,48.0265491 L29.123332,48.0265491 C39.3392944,48.1016664 39.5646466,64.627488 29.1984494,64.627488 Z M64.5787311,83.4068308 L64.5787311,112.026549 C64.5787311,112.026549 47.9777921,116.082887 47.9777921,103.98899 C47.9777921,97.3786618 47.9777921,89.4913378 47.9777921,83.5570655 C47.9777921,73.3411031 64.5787311,73.115751 64.5787311,83.4068308 Z M47.9777921,29.2472064 C47.9777921,17.6791312 47.9777921,0.627488046 47.9777921,0.627488046 C47.9777921,0.627488046 64.5787311,-3.35373261 64.5787311,8.7401641 L64.5787311,29.172089 C64.5787311,39.3880514 47.9777921,39.6134035 47.9777921,29.2472064 Z" id="Combined-Shape"></path>
            <path d="M141.949623,45.172089 L141.949623,55.913873 C145.029435,51.4068308 148.03413,46.6744364 151.865116,42.6932157 C153.667933,40.7401641 154.419107,40.5899294 157.048215,40.5899294 L161.780609,40.5899294 L161.780609,40.8152815 C159.151501,43.5195068 152.31582,51.7073003 148.860421,56.6650467 C152.090468,61.3223237 155.17028,66.5805397 159.527088,70.2612909 C160.503614,71.0875819 161.254787,71.3880514 162.231313,71.6885209 C161.630374,74.1673941 160.578731,75.14392 157.799388,75.14392 C156.146806,75.14392 154.193755,74.3176289 152.991877,72.9655162 C148.785304,68.0828871 145.329905,63.1251406 141.949623,57.6415726 L141.949623,74.9936852 L139.696102,74.9936852 C136.390938,74.9936852 135.18906,72.6650467 135.18906,70.3364082 L135.18906,40.5899294 L137.367463,40.5899294 C140.672628,40.514812 141.949623,42.7683331 141.949623,45.172089 Z M176.428496,64.2519012 L171.996571,64.2519012 C172.522393,67.6321829 175.602205,69.8105866 179.583426,69.8105866 C182.362769,69.8105866 185.667933,69.284765 187.846337,67.256596 L188.071689,67.256596 L188.071689,69.3598824 C188.071689,72.8152815 185.74305,75.4443895 178.306431,75.4443895 C171.545867,75.4443895 165.010656,70.1110561 165.010656,61.8481453 C165.010656,52.8340608 170.569341,47.1251406 178.231313,47.1251406 C183.865116,47.1251406 189.048215,51.1063613 189.048215,57.6415726 C189.123332,62.6744364 185.367463,64.2519012 176.428496,64.2519012 Z M177.630374,52.8340608 C174.400327,52.8340608 172.071689,55.4631688 171.921454,58.6180984 L171.846337,59.5195068 L174.851032,59.5195068 C181.236008,59.5195068 182.663238,58.8434505 182.663238,56.8903988 C182.738355,54.1861735 180.785304,52.8340608 177.630374,52.8340608 Z M217.818168,74.9185679 C214.813473,74.9185679 212.935539,73.0406336 212.935539,70.486643 L212.935539,59.7448589 C212.935539,55.1626993 210.90737,53.1345303 207.451971,53.1345303 C204.522393,53.1345303 202.494224,55.3129341 202.494224,59.2190373 L202.494224,74.8434505 L200.466055,74.8434505 C197.611595,74.8434505 195.733661,72.9655162 195.733661,70.4115256 L195.733661,58.6932157 C195.733661,52.9842956 199.489529,47.1251406 207.902675,47.1251406 C214.287651,47.1251406 219.545867,51.4068308 219.545867,59.0688026 L219.545867,74.8434505 L217.818168,74.8434505 L217.818168,74.9185679 Z M229.836947,43.5946242 C230.738355,42.542981 231.940233,41.7166899 232.991877,41.7166899 L234.569341,41.7166899 L234.569341,47.801197 L243.959013,47.801197 L243.959013,50.5805397 C243.959013,52.0077697 242.682017,53.8105866 239.902675,53.8105866 L234.569341,53.8105866 L234.569341,64.4021359 C234.569341,67.9326524 236.146806,69.284765 238.851032,69.284765 C241.029435,69.284765 242.682017,68.9842956 243.733661,68.3082392 L243.959013,68.3082392 L243.959013,70.7119951 C243.959013,73.4913378 241.930844,75.2190373 238.02474,75.2190373 C231.18906,75.2190373 227.883895,71.5382862 227.883895,65.1533096 L227.883895,48.8528402 C227.883895,46.2988495 228.409717,45.2472064 229.836947,43.5946242 Z M253.649154,45.9232627 C251.47075,45.9232627 249.74305,44.1204458 249.74305,41.942042 C249.74305,39.7636383 251.47075,38.0359388 253.649154,38.0359388 C255.827557,38.0359388 257.630374,39.7636383 257.630374,41.942042 C257.630374,44.1204458 255.827557,45.9232627 253.649154,45.9232627 Z M258.456665,75.14392 C253.273567,75.14392 250.343989,72.2143425 250.343989,66.7307744 L250.343989,48.4021359 L252.221924,48.4021359 C255.226618,48.4021359 257.029435,49.9796007 257.029435,53.4349998 L257.029435,66.1298355 C257.029435,68.8340608 258.156196,69.6603519 261.160891,69.6603519 L262.437886,69.6603519 L262.437886,71.0875819 C262.437886,74.0171594 261.311125,75.14392 258.456665,75.14392 Z M288.203144,56.5899294 C287.301736,55.0124646 284.747745,53.8105866 280.841642,53.8105866 C276.935539,53.8105866 273.48014,56.9655162 273.48014,61.0218542 C273.48014,65.9796007 276.409717,69.284765 280.991877,69.284765 C284.822863,69.284765 287.151501,68.0077697 288.128027,66.8058918 L288.353379,66.8058918 L288.353379,69.885704 C288.353379,73.115751 285.198449,75.5195068 280.31582,75.5195068 C272.879201,75.5195068 266.419107,69.7354693 266.419107,61.9983801 C266.419107,54.2612909 271.827557,47.6509622 281.066994,47.6509622 C285.348684,47.6509622 288.428496,50.2800702 288.428496,53.4349998 L288.428496,56.5899294 L288.203144,56.5899294 Z M306.982487,47.200258 C315.095163,47.200258 319.75244,53.7354693 319.75244,60.8716195 C319.75244,68.9842956 315.095163,75.5195068 306.381548,75.5195068 C298.268872,75.5195068 293.611595,69.0594129 293.611595,61.8481453 C293.536478,53.7354693 298.268872,47.200258 306.982487,47.200258 Z M306.381548,53.2096477 C302.475445,53.2096477 300.59751,56.4396946 300.59751,60.8716195 C300.59751,66.2800702 302.550562,69.4349998 306.982487,69.4349998 C310.88859,69.4349998 312.766524,66.2049528 312.766524,61.773028 C312.766524,56.4396946 310.813473,53.2096477 306.381548,53.2096477 Z" id="Combined-Shape"></path>
        </g>
    </g>
</svg>