<?xml version="1.0" encoding="utf-8"?>
<!-- Generator: Adobe Illustrator 23.0.5, SVG Export Plug-In . SVG Version: 6.00 Build 0)  -->
<svg version="1.1" id="Sitecore" xmlns="http://www.w3.org/2000/svg" xmlns:xlink="http://www.w3.org/1999/xlink" x="0px" y="0px"
	 viewBox="0 0 170.5 36.7" style="enable-background:new 0 0 170.5 36.7;" xml:space="preserve">
<style type="text/css">
	.st0{fill:#FFFFFF;}
</style>
<g id="Logo">
	<path class="st0" d="M26.6,17.1v-0.3h4.3c-0.3-2.2-1.1-4.2-2.3-5.9l-4.4,2.8c1.3,2.1,1.5,4.4,0.5,6.7c-1.2,2.7-4,5.2-7.2,6.3
		c1.4-0.2,2.8-0.6,4.1-1.3C24.6,23.7,26.4,20.7,26.6,17.1z"/>
	<path class="st0" d="M31,17.4h-3.7C27,21.1,25,24.2,21.9,26c-1.8,1-3.9,1.5-6,1.5c-1.6,0-3.3-0.3-4.9-0.9c1.9,1.2,4,1.8,6.3,1.8
		l0,0c4,0,7.6-2.1,9.6-5.7l0.2-0.3l2.5,1.6c0.9-1.7,1.4-3.7,1.4-5.7C31,18,31,17.7,31,17.4z"/>
	<path class="st0" d="M17.3,29.1L17.3,29.1c-4,0-7.8-2-10.5-5.4c2,4.3,6.4,7.3,11.5,7.3c4.7,0,8.8-2.6,11-6.4l-2-1.2
		C25.2,27,21.5,29.1,17.3,29.1z"/>
	<path class="st0" d="M18.3,0C8.2,0,0,8.2,0,18.3s8.2,18.3,18.3,18.3s18.3-8.2,18.3-18.3C36.7,8.2,28.5,0,18.3,0z M18.3,31.7
		C11,31.7,5,25.7,5,18.3C5,11,11,5,18.3,5c7.4,0,13.3,6,13.3,13.3C31.7,25.7,25.7,31.7,18.3,31.7z"/>
</g>
<g id="Typeface">
	<polygon class="st0" points="90.7,18.8 97,18.8 97,15.8 90.7,15.8 90.7,13 97.4,13 97.4,9.9 87.2,9.9 87.2,25 97.7,25 97.7,21.9 
		90.7,21.9 	"/>
	<rect x="63.2" y="9.9" class="st0" width="3.7" height="15.2"/>
	<polygon class="st0" points="70.9,13 75.2,13 75.2,25 78.9,25 78.9,13 83.1,13 83.1,9.9 70.9,9.9 	"/>
	<path class="st0" d="M52.3,12.8c0.2-0.1,0.4-0.2,0.7-0.2c0.2,0,0.5-0.1,0.7-0.1c0.5,0,1,0.1,1.5,0.4c0.5,0.2,0.9,0.6,1.2,1l2.3-2.5
		c-0.7-0.6-1.5-1.1-2.3-1.4c-0.9-0.3-1.8-0.5-2.6-0.5c-0.7,0-1.4,0.1-2.1,0.3c-0.7,0.2-1.3,0.5-1.9,0.8c-0.6,0.4-1,0.9-1.3,1.5
		S48,13.4,48,14.3c0,0.7,0.1,1.3,0.3,1.7c0.2,0.5,0.5,0.9,0.9,1.2c0.4,0.3,0.8,0.6,1.2,0.8c0.5,0.2,0.9,0.4,1.4,0.6s0.9,0.3,1.3,0.4
		c0.4,0.1,0.7,0.3,1,0.5s0.5,0.3,0.6,0.5s0.2,0.4,0.2,0.7c0,0.3-0.1,0.6-0.2,0.8c-0.1,0.2-0.3,0.4-0.5,0.5s-0.4,0.2-0.7,0.3
		c-0.3,0.1-0.5,0.1-0.8,0.1c-0.6,0-1.2-0.2-1.8-0.5s-1.1-0.7-1.5-1.1L47,23.2c0.7,0.7,1.5,1.2,2.5,1.6s2.1,0.6,3.1,0.6
		c0.7,0,1.5-0.1,2.2-0.3c0.7-0.2,1.3-0.5,1.9-0.9c0.5-0.4,1-0.9,1.3-1.6c0.3-0.6,0.5-1.4,0.5-2.3c0-0.8-0.1-1.4-0.4-1.9
		c-0.3-0.5-0.7-0.9-1.1-1.3c-0.5-0.3-1-0.6-1.5-0.8c-0.5-0.1-1-0.3-1.5-0.5c-0.4-0.1-0.7-0.2-1-0.3s-0.5-0.2-0.7-0.4
		c-0.2-0.1-0.4-0.3-0.5-0.4c-0.1-0.2-0.2-0.4-0.2-0.6c0-0.3,0.1-0.5,0.2-0.7C52,13.1,52.1,13,52.3,12.8z"/>
	<path class="st0" d="M111.4,21.7c-0.5,0.3-1.2,0.4-1.9,0.4c-0.6,0-1.2-0.1-1.7-0.3c-0.5-0.2-1-0.5-1.4-1c-0.4-0.4-0.7-0.9-0.9-1.5
		c-0.2-0.6-0.3-1.2-0.3-1.9c0-0.7,0.1-1.3,0.3-1.9c0.2-0.6,0.5-1.1,0.9-1.5s0.8-0.7,1.4-1c0.5-0.2,1.1-0.4,1.8-0.4
		c0.6,0,1.2,0.1,1.7,0.3c0.6,0.2,1,0.6,1.3,1l2.5-2.5c-0.6-0.7-1.5-1.3-2.5-1.7s-2.1-0.6-3.2-0.6c-1.2,0-2.2,0.2-3.2,0.6
		c-1,0.4-1.9,0.9-2.6,1.6c-0.7,0.7-1.3,1.5-1.7,2.5c-0.4,1-0.6,2.1-0.6,3.3c0,1.2,0.2,2.3,0.6,3.3s1,1.8,1.7,2.5s1.6,1.3,2.6,1.6
		s2.1,0.6,3.2,0.6c1.3,0,2.4-0.2,3.4-0.7c1-0.4,1.8-1.1,2.5-1.8l-2.5-2.4C112.3,21,111.9,21.4,111.4,21.7z"/>
	<path class="st0" d="M131.6,11.6c-0.7-0.7-1.6-1.2-2.6-1.6c-1-0.4-2.1-0.6-3.3-0.6c-1.2,0-2.3,0.2-3.3,0.6c-1,0.4-1.9,0.9-2.6,1.6
		c-0.7,0.7-1.3,1.5-1.7,2.5c-0.4,1-0.6,2.1-0.6,3.3c0,1.2,0.2,2.3,0.6,3.3s1,1.8,1.7,2.5s1.6,1.3,2.6,1.6c1,0.4,2.1,0.6,3.3,0.6
		c1.2,0,2.3-0.2,3.3-0.6s1.9-0.9,2.6-1.6c0.7-0.7,1.3-1.6,1.7-2.5c0.4-1,0.6-2.1,0.6-3.3c0-1.2-0.2-2.3-0.6-3.3
		S132.3,12.3,131.6,11.6z M129.7,19.3c-0.2,0.6-0.5,1.1-0.9,1.5s-0.8,0.7-1.4,1c-0.5,0.2-1.1,0.4-1.8,0.4c-0.6,0-1.2-0.1-1.8-0.4
		c-0.5-0.2-1-0.6-1.4-1s-0.7-0.9-0.9-1.5c-0.2-0.6-0.3-1.2-0.3-1.9c0-0.7,0.1-1.3,0.3-1.8c0.2-0.6,0.5-1.1,0.9-1.5s0.8-0.7,1.4-1
		c0.5-0.2,1.1-0.4,1.8-0.4c0.6,0,1.2,0.1,1.8,0.4c0.5,0.2,1,0.6,1.4,1c0.4,0.4,0.7,0.9,0.9,1.5c0.2,0.6,0.3,1.2,0.3,1.8
		C130,18.1,129.9,18.7,129.7,19.3z"/>
	<polygon class="st0" points="157.7,18.8 164,18.8 164,15.8 157.7,15.8 157.7,13 164.3,13 164.3,9.9 154.2,9.9 154.2,25 164.7,25 
		164.7,21.9 157.7,21.9 	"/>
	<path class="st0" d="M148.7,17.1c0.6-0.7,0.8-1.6,0.8-2.6c0-0.9-0.2-1.6-0.5-2.2c-0.3-0.6-0.8-1.1-1.3-1.4
		c-0.5-0.4-1.2-0.6-1.9-0.8s-1.4-0.2-2.1-0.2h-5.8V25h3.6v-6h1.2l3.3,6h4.3l-4-6.5C147.4,18.3,148.1,17.8,148.7,17.1z M145.7,15.5
		c-0.2,0.2-0.4,0.4-0.6,0.6c-0.3,0.1-0.5,0.2-0.9,0.3c-0.3,0.1-0.6,0.1-0.9,0.1h-1.7V13h2c0.3,0,0.6,0,0.8,0.1
		c0.3,0,0.6,0.1,0.8,0.2c0.2,0.1,0.4,0.3,0.6,0.5c0.2,0.2,0.2,0.5,0.2,0.9C145.9,14.9,145.8,15.2,145.7,15.5z"/>
	<path class="st0" d="M170.3,10.8c-0.1-0.2-0.2-0.3-0.3-0.5c-0.1-0.1-0.3-0.2-0.5-0.3s-0.4-0.1-0.6-0.1c-0.2,0-0.4,0-0.6,0.1
		c-0.2,0.1-0.3,0.2-0.5,0.3c-0.1,0.1-0.2,0.3-0.3,0.5s-0.1,0.4-0.1,0.6c0,0.2,0,0.4,0.1,0.6c0.1,0.2,0.2,0.3,0.3,0.5
		c0.1,0.1,0.3,0.2,0.5,0.3s0.4,0.1,0.6,0.1c0.2,0,0.4,0,0.6-0.1c0.2-0.1,0.3-0.2,0.5-0.3c0.1-0.1,0.2-0.3,0.3-0.5s0.1-0.4,0.1-0.6
		C170.5,11.2,170.4,11,170.3,10.8z M170.1,11.9c-0.1,0.2-0.2,0.3-0.3,0.4c-0.1,0.1-0.2,0.2-0.4,0.3s-0.3,0.1-0.5,0.1s-0.3,0-0.5-0.1
		s-0.3-0.2-0.4-0.3c-0.1-0.1-0.2-0.3-0.3-0.4c-0.1-0.2-0.1-0.3-0.1-0.5s0-0.3,0.1-0.5s0.2-0.3,0.3-0.4c0.1-0.1,0.2-0.2,0.4-0.3
		s0.3-0.1,0.5-0.1s0.3,0,0.5,0.1s0.3,0.2,0.4,0.3c0.1,0.1,0.2,0.2,0.3,0.4s0.1,0.3,0.1,0.5C170.2,11.6,170.2,11.8,170.1,11.9z"/>
	<path class="st0" d="M169.5,11.4c0.1-0.1,0.1-0.2,0.1-0.3s0-0.2-0.1-0.2c0-0.1-0.1-0.1-0.1-0.2c-0.1,0-0.1-0.1-0.2-0.1
		c-0.1,0-0.2,0-0.2,0h-0.6v1.7h0.3v-0.7h0.2l0.4,0.7h0.4l-0.5-0.7C169.3,11.5,169.4,11.4,169.5,11.4z M168.9,11.3h-0.2v-0.5h0.3
		c0.1,0,0.2,0,0.2,0c0.1,0,0.1,0.1,0.1,0.2c0,0.1,0,0.2-0.1,0.2C169.1,11.3,169,11.3,168.9,11.3z"/>
</g>
</svg>
